<svg width="138" height="98" viewBox="0 0 138 98" fill="none" xmlns="http://www.w3.org/2000/svg">
<path d="M8.448 17.384C7.50933 18.152 6.528 18.8773 5.504 19.56C4.48 20.2427 3.28533 20.584 1.92 20.584C0.64 20.584 0 19.432 0 17.128C0 12.4347 2.176 8.59466 6.528 5.60799C10.7093 2.53599 15.744 0.999992 21.632 0.999992C27.52 0.999992 31.8293 3.09066 34.56 7.272C36.7787 10.6 37.888 15.1227 37.888 20.84C37.888 23.3147 37.4187 26.5147 36.48 30.44C31.616 50.7493 29.1413 64.8293 29.056 72.68C29.1413 76.4347 30.72 78.9947 33.792 80.36C34.9867 80.872 36.3947 81.128 38.016 81.128C45.6107 81.128 52.7787 76.648 59.52 67.688C56.1067 55.7413 54.4 42.1733 54.4 26.984C54.4 21.352 55.7227 16.7867 58.368 13.288C61.0987 9.70399 65.4933 7.91199 71.552 7.91199C76.0747 7.91199 79.488 9.192 81.792 11.752C84.1813 14.312 85.376 17.6827 85.376 21.864C85.376 30.4827 83.1147 41.1067 78.592 53.736C77.056 58.0027 75.264 62.2267 73.216 66.408C76.8853 76.3067 81.7493 81.256 87.808 81.256C94.6347 81.256 100.608 76.648 105.728 67.432C109.483 60.6907 112.555 51.5173 114.944 39.912C108.715 39.0587 103.765 36.4133 100.096 31.976C96.512 27.5387 94.72 22.8027 94.72 17.768C94.72 12.7333 96.2987 8.552 99.456 5.224C102.613 1.896 106.923 0.231995 112.384 0.231995C117.845 0.146662 121.941 2.06666 124.672 5.992C127.403 9.832 128.768 15.08 128.768 21.736V24.296C128.768 25.2347 128.725 26.2587 128.64 27.368C130.091 26.6853 131.328 26.0027 132.352 25.32C133.376 24.552 134.4 24.168 135.424 24.168C137.131 24.168 137.984 24.8933 137.984 26.344C137.984 29.16 137.045 31.6347 135.168 33.768C133.376 35.9013 130.944 37.5227 127.872 38.632C126.763 48.616 125.269 56.4667 123.392 62.184C119.893 73.192 115.285 81.5547 109.568 87.272C102.741 93.928 94.336 97.2987 84.352 97.384C76.0747 97.384 69.3333 91.88 64.128 80.872C55.424 91.88 45.5253 97.384 34.432 97.384C26.8373 97.384 20.7787 95.5067 16.256 91.752C11.8187 87.912 9.6 81.896 9.6 73.704C9.6 71.7413 10.6667 66.5787 12.8 58.216C15.0187 49.768 16.768 42.856 18.048 37.48C19.328 32.0187 19.968 27.7093 19.968 24.552C19.968 17.64 18.2187 14.184 14.72 14.184C13.5253 14.184 12.416 14.5253 11.392 15.208C10.4533 15.8907 9.472 16.616 8.448 17.384ZM70.528 18.664C68.3093 18.664 67.2 22.12 67.2 29.032C67.2 35.944 67.7973 42.8987 68.992 49.896C72.2347 41.448 73.856 33.256 73.856 25.32C73.856 23.6133 73.5573 22.0773 72.96 20.712C72.448 19.3467 71.6373 18.664 70.528 18.664ZM113.792 11.368C112 11.368 111.104 12.776 111.104 15.592C111.104 20.712 113.109 24.424 117.12 26.728C117.461 23.4853 117.632 21.3093 117.632 20.2C117.632 17.8107 117.333 15.8907 116.736 14.44C116.053 12.392 115.072 11.368 113.792 11.368Z" fill="#FF3146"/>
</svg>
